<?xml version="1.0" encoding="UTF-8" standalone="no"?>
<svg
   xmlns:dc="http://purl.org/dc/elements/1.1/"
   xmlns:cc="http://creativecommons.org/ns#"
   xmlns:rdf="http://www.w3.org/1999/02/22-rdf-syntax-ns#"
   xmlns:svg="http://www.w3.org/2000/svg"
   xmlns="http://www.w3.org/2000/svg"
   xmlns:xlink="http://www.w3.org/1999/xlink"
   width="1920"
   height="1440"
   viewBox="0 0 508.00001 380.99998"
   version="1.1"
   id="svg1155">
  <defs
     id="defs1149">
    <linearGradient
       id="linearGradient2139">
      <stop
         style="stop-color:#ff6d00;stop-opacity:1"
         offset="0"
         id="stop2135" />
      <stop
         style="stop-color:#ff6d00;stop-opacity:0"
         offset="1"
         id="stop2137" />
    </linearGradient>
    <linearGradient
       id="linearGradient1912">
      <stop
         style="stop-color:#000000;stop-opacity:1"
         offset="0"
         id="stop1908" />
      <stop
         style="stop-color:#000000;stop-opacity:0"
         offset="0.42743734"
         id="stop1924" />
      <stop
         style="stop-color:#000000;stop-opacity:0"
         offset="0.58735102"
         id="stop1922" />
      <stop
         style="stop-color:#000000;stop-opacity:1"
         offset="1"
         id="stop1910" />
    </linearGradient>
    <linearGradient
       id="linearGradient1040">
      <stop
         style="stop-color:#2a87e5;stop-opacity:1"
         offset="0"
         id="stop1036" />
      <stop
         style="stop-color:#1949b0;stop-opacity:1"
         offset="1"
         id="stop1038" />
    </linearGradient>
    <linearGradient
       id="linearGradient1048">
      <stop
         style="stop-color:#ff9a0b;stop-opacity:1"
         offset="0"
         id="stop1044" />
      <stop
         style="stop-color:#fec109;stop-opacity:1"
         offset="1"
         id="stop1046" />
    </linearGradient>
    <linearGradient
       id="linearGradient1414">
      <stop
         style="stop-color:#000000;stop-opacity:1;"
         offset="0"
         id="stop1410" />
      <stop
         style="stop-color:#000000;stop-opacity:0;"
         offset="1"
         id="stop1412" />
    </linearGradient>
    <linearGradient
       xlink:href="#linearGradient2139"
       id="linearGradient1944"
       x1="1154.1146"
       y1="523.29413"
       x2="1154.1146"
       y2="606.29492"
       gradientUnits="userSpaceOnUse" />
    <linearGradient
       xlink:href="#linearGradient1912"
       id="linearGradient1944-9"
       x1="1110.1484"
       y1="655.39062"
       x2="1110.1484"
       y2="523.29492"
       gradientUnits="userSpaceOnUse"
       gradientTransform="matrix(0.26458333,0,0,0.26458333,-19.747097,59.329193)" />
    <radialGradient
       xlink:href="#linearGradient1040"
       id="radialGradient1066"
       gradientUnits="userSpaceOnUse"
       gradientTransform="matrix(1.093593,0,0,0.84434357,139.17488,23.85755)"
       cx="134.34062"
       cy="101.54339"
       fx="134.34062"
       fy="101.54339"
       r="215.41554" />
    <linearGradient
       xlink:href="#linearGradient1448"
       id="linearGradient1450"
       x1="422.09839"
       y1="907.31433"
       x2="744.21881"
       y2="1043.707"
       gradientUnits="userSpaceOnUse"
       gradientTransform="matrix(0.28300116,0,0,0.28300116,31.37595,-4.7842957)" />
    <linearGradient
       id="linearGradient1448">
      <stop
         style="stop-color:#000000;stop-opacity:1;"
         offset="0"
         id="stop1444" />
      <stop
         style="stop-color:#000000;stop-opacity:0.0070946"
         offset="0.35300744"
         id="stop1454" />
      <stop
         style="stop-color:#000000;stop-opacity:0.00451072"
         offset="0.67886925"
         id="stop1452" />
      <stop
         style="stop-color:#000000;stop-opacity:0.99413878"
         offset="1"
         id="stop1446" />
    </linearGradient>
    <radialGradient
       xlink:href="#linearGradient1414"
       id="radialGradient2147"
       gradientUnits="userSpaceOnUse"
       gradientTransform="matrix(0.42427144,-1.3391213,0.26980443,0.08548166,81.552462,240.67473)"
       cx="119.08736"
       cy="79.385506"
       fx="119.08736"
       fy="79.385506"
       r="215.41554" />
    <radialGradient
       xlink:href="#linearGradient1414"
       id="radialGradient2158"
       gradientUnits="userSpaceOnUse"
       gradientTransform="matrix(0.25639669,0.08518784,-0.37832493,1.1386748,234.46042,-79.468582)"
       cx="105.41997"
       cy="310.69675"
       fx="105.41997"
       fy="310.69675"
       r="215.41554" />
    <radialGradient
       xlink:href="#linearGradient1040"
       id="radialGradient2197"
       gradientUnits="userSpaceOnUse"
       gradientTransform="matrix(4.1332641,0,0,3.1912198,526.01355,90.170263)"
       cx="134.34062"
       cy="101.54339"
       fx="134.34062"
       fy="101.54339"
       r="215.41554" />
    <linearGradient
       xlink:href="#linearGradient1414"
       id="linearGradient958"
       x1="410.12122"
       y1="226.61609"
       x2="188.51407"
       y2="285.99554"
       gradientUnits="userSpaceOnUse"
       gradientTransform="matrix(0.26458333,0,0,0.26458333,-110.51552,-2.8978669)" />
    <radialGradient
       xlink:href="#linearGradient1414"
       id="radialGradient2147-7"
       gradientUnits="userSpaceOnUse"
       gradientTransform="matrix(0.28663196,1.3529555,-0.2584476,0.05475372,32.486798,146.05925)"
       cx="19.764137"
       cy="-102.80484"
       fx="19.764137"
       fy="-102.80484"
       r="215.41554" />
    <radialGradient
       xlink:href="#linearGradient1414"
       id="radialGradient2158-0"
       gradientUnits="userSpaceOnUse"
       gradientTransform="matrix(-0.2226193,-0.06711467,0.34633953,-1.1488076,249.9128,640.9806)"
       cx="455.40173"
       cy="308.63443"
       fx="455.40173"
       fy="308.63443"
       r="215.41554" />
    <radialGradient
       xlink:href="#linearGradient1414"
       id="radialGradient1008"
       gradientUnits="userSpaceOnUse"
       gradientTransform="matrix(0.22585691,0.06620272,-0.42308473,1.4433939,339.62431,-135.31431)"
       cx="244.33676"
       cy="233.86722"
       fx="244.33676"
       fy="233.86722"
       r="215.41554" />
    <radialGradient
       xlink:href="#linearGradient1048"
       id="radialGradient1062-3-0"
       cx="131.40421"
       cy="87.834259"
       fx="131.40421"
       fy="87.834259"
       r="37.025593"
       gradientTransform="matrix(6.4175478,0,0,4.8720155,-560.41685,-321.24009)"
       gradientUnits="userSpaceOnUse" />
    <radialGradient
       xlink:href="#linearGradient1048"
       id="radialGradient1062-3-7-2"
       cx="126.15346"
       cy="82.893188"
       fx="126.15346"
       fy="82.893188"
       r="37.025593"
       gradientTransform="matrix(6.4175478,0,0,4.8720155,-582.92318,-255.9573)"
       gradientUnits="userSpaceOnUse" />
  </defs>
  <metadata
     id="metadata1152">
    <rdf:RDF>
      <cc:Work
         rdf:about="">
        <dc:format>image/svg+xml</dc:format>
        <dc:type
           rdf:resource="http://purl.org/dc/dcmitype/StillImage" />
        <dc:title></dc:title>
      </cc:Work>
    </rdf:RDF>
  </metadata>
  <g
     id="layer2"
     style="display:inline;fill:#ffffff;fill-opacity:1"
     transform="translate(110.51596,2.8978669)">
    <g
       aria-label="Mines Etudes et Projets"
       transform="scale(0.99978154,1.0002185)"
       id="text1566-6"
       style="font-style:normal;font-variant:normal;font-weight:normal;font-stretch:normal;font-size:44.8531px;line-height:1.25;font-family:klima;-inkscape-font-specification:klima;text-align:center;letter-spacing:0px;word-spacing:0px;text-anchor:middle;display:inline;fill:#ffffff;fill-opacity:1;stroke-width:0.233609">
      <g
         aria-label="É"
         transform="scale(1.0002185,0.99978155)"
         id="text900"
         style="font-size:44.8264px;line-height:1.25;font-family:Sancreek;-inkscape-font-specification:Sancreek;text-align:center;letter-spacing:0px;word-spacing:0px;text-anchor:middle;stroke-width:0.140247;fill:#ffffff;fill-opacity:1">
        <path
           d="M 61.596628,330.6963 H 47.785369 v 11.29415 h 16.043824 v 3.4364 H 43.582894 v -31.86877 h 20.02742 v 3.45829 H 47.785369 v 10.24353 h 13.811259 z m -6.172385,-25.93715 h 4.902888 l -5.865955,6.43504 H 51.19988 Z"
           style="font-style:normal;font-variant:normal;font-weight:normal;font-stretch:normal;font-family:Roboto;-inkscape-font-specification:Roboto;stroke-width:0.140247;fill:#ffffff;fill-opacity:1"
           id="path899" />
      </g>
      <path
         d="m -83.761478,313.46363 10.424842,26.0183 10.424841,-26.0183 h 5.453331 v 31.88775 h -4.204978 v -12.41783 l 0.394217,-13.40336 -10.468644,25.82119 h -3.219436 l -10.446742,-25.75549 0.416117,13.33766 v 12.41783 h -4.204978 v -31.88775 z"
         style="font-style:normal;font-variant:normal;font-weight:normal;font-stretch:normal;font-size:44.8531px;font-family:Roboto;-inkscape-font-specification:Roboto;fill:#ffffff;fill-opacity:1;stroke-width:0.233609"
         id="path878" />
      <path
         d="m -46.267089,345.35138 h -4.051672 v -23.6968 h 4.051672 z m -4.380186,-29.98237 q 0,-0.98554 0.591325,-1.66447 0.613226,-0.67893 1.795876,-0.67893 1.182651,0 1.795876,0.67893 0.613226,0.67893 0.613226,1.66447 0,0.98554 -0.613226,1.64257 -0.613225,0.65703 -1.795876,0.65703 -1.18265,0 -1.795876,-0.65703 -0.591325,-0.65703 -0.591325,-1.64257 z"
         style="font-style:normal;font-variant:normal;font-weight:normal;font-stretch:normal;font-size:44.8531px;font-family:Roboto;-inkscape-font-specification:Roboto;fill:#ffffff;fill-opacity:1;stroke-width:0.233609"
         id="path880" />
      <path
         d="m -35.951751,321.65458 0.131405,2.97852 q 2.715715,-3.41654 7.095901,-3.41654 7.512018,0 7.577721,8.47566 v 15.65916 h -4.051672 v -15.68106 q -0.0219,-2.56241 -1.18265,-3.78887 -1.138848,-1.22645 -3.569851,-1.22645 -1.971084,0 -3.460347,1.05125 -1.489263,1.05124 -2.321498,2.75951 v 16.88562 h -4.051672 v -23.6968 z"
         style="font-style:normal;font-variant:normal;font-weight:normal;font-stretch:normal;font-size:44.8531px;font-family:Roboto;-inkscape-font-specification:Roboto;fill:#ffffff;fill-opacity:1;stroke-width:0.233609"
         id="path882" />
      <path
         d="m -5.2028466,345.7894 q -4.8182044,0 -7.8405324,-3.15374 -3.022328,-3.17563 -3.022328,-8.47565 v -0.74464 q 0,-3.52605 1.335957,-6.28556 1.357857,-2.78142 3.766959,-4.33639 2.4310034,-1.57686 5.2562231,-1.57686 4.6210957,0 7.1835042,3.04423 2.5624086,3.04423 2.5624086,8.71657 v 1.68637 H -12.014035 q 0.0876,3.50415 2.0367862,5.67234 1.9710835,2.14629 4.9934115,2.14629 2.1462909,0 3.635554,-0.87604 1.48926304,-0.87604 2.6062103,-2.3215 l 2.4748049,1.92728 q -2.97852619,4.5773 -8.9355785,4.5773 z m -0.5037213,-21.2439 q -2.4529039,0 -4.1173744,1.79587 -1.6644707,1.77398 -2.0586877,4.99342 h 11.87030325 v -0.30662 q -0.17520742,-3.08803 -1.66447055,-4.7744 -1.489263,-1.70827 -4.0297706,-1.70827 z"
         style="font-style:normal;font-variant:normal;font-weight:normal;font-stretch:normal;font-size:44.8531px;font-family:Roboto;-inkscape-font-specification:Roboto;fill:#ffffff;fill-opacity:1;stroke-width:0.233609"
         id="path884" />
      <path
         d="m 22.523726,339.06581 q 0,-1.64257 -1.248353,-2.5405 -1.226452,-0.91984 -4.314483,-1.57687 -3.06613,-0.65703 -4.883907,-1.57687 -1.795876,-0.91984 -2.6719128,-2.19009 -0.8541362,-1.27025 -0.8541362,-3.02233 0,-2.91282 2.452904,-4.92771 2.474805,-2.01488 6.307467,-2.01488 4.029771,0 6.526477,2.08059 2.518606,2.08058 2.518606,5.32192 h -4.073572 q 0,-1.66447 -1.423561,-2.86902 -1.401659,-1.20455 -3.54795,-1.20455 -2.211994,0 -3.460346,0.96364 -1.248353,0.96364 -1.248353,2.51861 0,1.46736 1.160749,2.21199 1.160749,0.74463 4.183077,1.42356 3.044229,0.67893 4.927709,1.62067 1.883479,0.94174 2.781418,2.27769 0.919838,1.31406 0.919838,3.21944 0,3.17564 -2.540507,5.10292 -2.540508,1.90538 -6.592179,1.90538 -2.847121,0 -5.037214,-1.00744 -2.190092,-1.00745 -3.4384453,-2.80332 -1.226452,-1.81778 -1.226452,-3.92027 h 4.0516713 q 0.109505,2.03679 1.620669,3.24134 1.533065,1.18265 4.029771,1.18265 2.299597,0 3.679356,-0.91984 1.401659,-0.94174 1.401659,-2.49671 z"
         style="font-style:normal;font-variant:normal;font-weight:normal;font-stretch:normal;font-size:44.8531px;font-family:Roboto;-inkscape-font-specification:Roboto;fill:#ffffff;fill-opacity:1;stroke-width:0.233609"
         id="path886" />
      <path
         d="m 73.947098,315.91653 v 5.73805 h 4.423987 v 3.13183 h -4.423987 v 14.69552 q 0,1.42356 0.591325,2.14629 0.591325,0.70083 2.014885,0.70083 0.70083,0 1.927282,-0.26281 v 3.28514 q -1.598768,0.43802 -3.109932,0.43802 -2.715715,0 -4.095473,-1.64257 -1.379759,-1.64257 -1.379759,-4.6649 v -14.69552 h -4.314483 v -3.13183 h 4.314483 v -5.73805 z"
         style="font-style:normal;font-variant:normal;font-weight:normal;font-stretch:normal;font-size:44.8531px;font-family:Roboto;-inkscape-font-specification:Roboto;fill:#ffffff;fill-opacity:1;stroke-width:0.233609"
         id="path890" />
      <path
         d="m 97.731518,343.00798 q -2.3653,2.78142 -6.942594,2.78142 -3.78886,0 -5.781845,-2.19009 -1.971083,-2.212 -1.992984,-6.52648 v -15.41825 h 4.051671 v 15.30874 q 0,5.38763 4.380186,5.38763 4.642996,0 6.176061,-3.46034 v -17.23603 h 4.051677 v 23.6968 h -3.854568 z"
         style="font-style:normal;font-variant:normal;font-weight:normal;font-stretch:normal;font-size:44.8531px;font-family:Roboto;-inkscape-font-specification:Roboto;fill:#ffffff;fill-opacity:1;stroke-width:0.233609"
         id="path892" />
      <path
         d="m 106.84229,333.30587 q 0,-5.45333 2.58431,-8.76037 2.58431,-3.32894 6.76739,-3.32894 4.16117,0 6.59218,2.84712 v -12.35213 h 4.05167 v 33.63983 h -3.72316 l -0.19711,-2.54051 q -2.431,2.97853 -6.76738,2.97853 -4.11738,0 -6.72359,-3.37274 -2.58431,-3.37275 -2.58431,-8.80418 z m 4.05167,0.45992 q 0,4.02977 1.66447,6.30747 1.66447,2.27769 4.5992,2.27769 3.85456,0 5.62854,-3.46034 v -10.88477 q -1.81778,-3.35084 -5.58474,-3.35084 -2.97853,0 -4.643,2.2996 -1.66447,2.2996 -1.66447,6.81119 z"
         style="font-style:normal;font-variant:normal;font-weight:normal;font-stretch:normal;font-size:44.8531px;font-family:Roboto;-inkscape-font-specification:Roboto;fill:#ffffff;fill-opacity:1;stroke-width:0.233609"
         id="path894" />
      <path
         d="m 142.95693,345.7894 q -4.81821,0 -7.84053,-3.15374 -3.02233,-3.17563 -3.02233,-8.47565 v -0.74464 q 0,-3.52605 1.33595,-6.28556 1.35786,-2.78142 3.76696,-4.33639 2.43101,-1.57686 5.25623,-1.57686 4.62109,0 7.1835,3.04423 2.56241,3.04423 2.56241,8.71657 v 1.68637 h -16.05338 q 0.0876,3.50415 2.03679,5.67234 1.97108,2.14629 4.99341,2.14629 2.14629,0 3.63555,-0.87604 1.48926,-0.87604 2.60621,-2.3215 l 2.47481,1.92728 q -2.97853,4.5773 -8.93558,4.5773 z m -0.50372,-21.2439 q -2.45291,0 -4.11738,1.79587 -1.66447,1.77398 -2.05868,4.99342 h 11.8703 v -0.30662 q -0.17521,-3.08803 -1.66447,-4.7744 -1.48927,-1.70827 -4.02977,-1.70827 z"
         style="font-style:normal;font-variant:normal;font-weight:normal;font-stretch:normal;font-size:44.8531px;font-family:Roboto;-inkscape-font-specification:Roboto;fill:#ffffff;fill-opacity:1;stroke-width:0.233609"
         id="path896" />
      <path
         d="m 170.68351,339.06581 q 0,-1.64257 -1.24835,-2.5405 -1.22646,-0.91984 -4.31449,-1.57687 -3.06613,-0.65703 -4.8839,-1.57687 -1.79588,-0.91984 -2.67192,-2.19009 -0.85413,-1.27025 -0.85413,-3.02233 0,-2.91282 2.4529,-4.92771 2.47481,-2.01488 6.30747,-2.01488 4.02977,0 6.52647,2.08059 2.51861,2.08058 2.51861,5.32192 h -4.07357 q 0,-1.66447 -1.42356,-2.86902 -1.40166,-1.20455 -3.54795,-1.20455 -2.212,0 -3.46035,0.96364 -1.24835,0.96364 -1.24835,2.51861 0,1.46736 1.16075,2.21199 1.16075,0.74463 4.18307,1.42356 3.04423,0.67893 4.92771,1.62067 1.88348,0.94174 2.78142,2.27769 0.91984,1.31406 0.91984,3.21944 0,3.17564 -2.54051,5.10292 -2.54051,1.90538 -6.59218,1.90538 -2.84712,0 -5.03721,-1.00744 -2.19009,-1.00745 -3.43845,-2.80332 -1.22645,-1.81778 -1.22645,-3.92027 h 4.05167 q 0.10951,2.03679 1.62067,3.24134 1.53307,1.18265 4.02977,1.18265 2.2996,0 3.67936,-0.91984 1.40166,-0.94174 1.40166,-2.49671 z"
         style="font-style:normal;font-variant:normal;font-weight:normal;font-stretch:normal;font-size:44.8531px;font-family:Roboto;-inkscape-font-specification:Roboto;fill:#ffffff;fill-opacity:1;stroke-width:0.233609"
         id="path898" />
      <path
         d="m 200.95058,345.7894 q -4.8182,0 -7.84053,-3.15374 -3.02233,-3.17563 -3.02233,-8.47565 v -0.74464 q 0,-3.52605 1.33596,-6.28556 1.35785,-2.78142 3.76696,-4.33639 2.431,-1.57686 5.25622,-1.57686 4.62109,0 7.1835,3.04423 2.56241,3.04423 2.56241,8.71657 v 1.68637 h -16.05338 q 0.0876,3.50415 2.03679,5.67234 1.97108,2.14629 4.99341,2.14629 2.14629,0 3.63555,-0.87604 1.48927,-0.87604 2.60621,-2.3215 l 2.47481,1.92728 q -2.97853,4.5773 -8.93558,4.5773 z m -0.50372,-21.2439 q -2.4529,0 -4.11738,1.79587 -1.66447,1.77398 -2.05868,4.99342 h 11.8703 v -0.30662 q -0.17521,-3.08803 -1.66447,-4.7744 -1.48926,-1.70827 -4.02977,-1.70827 z"
         style="font-style:normal;font-variant:normal;font-weight:normal;font-stretch:normal;font-size:44.8531px;font-family:Roboto;-inkscape-font-specification:Roboto;fill:#ffffff;fill-opacity:1;stroke-width:0.233609"
         id="path900" />
      <path
         d="m 220.37671,315.91653 v 5.73805 h 4.42399 v 3.13183 h -4.42399 v 14.69552 q 0,1.42356 0.59132,2.14629 0.59133,0.70083 2.01489,0.70083 0.70083,0 1.92728,-0.26281 v 3.28514 q -1.59877,0.43802 -3.10993,0.43802 -2.71572,0 -4.09547,-1.64257 -1.37976,-1.64257 -1.37976,-4.6649 v -14.69552 h -4.31449 v -3.13183 h 4.31449 v -5.73805 z"
         style="font-style:normal;font-variant:normal;font-weight:normal;font-stretch:normal;font-size:44.8531px;font-family:Roboto;-inkscape-font-specification:Roboto;fill:#ffffff;fill-opacity:1;stroke-width:0.233609"
         id="path902" />
      <path
         d="m 245.47517,332.86785 v 12.48353 h -4.20497 v -31.88775 h 11.76079 q 5.23433,0 8.19095,2.67191 2.97853,2.67192 2.97853,7.074 0,4.643 -2.91283,7.1616 -2.89092,2.49671 -8.30045,2.49671 z m 0,-3.43845 h 7.55582 q 3.37275,0 5.16862,-1.57686 1.79588,-1.59877 1.79588,-4.5992 0,-2.84712 -1.79588,-4.55539 -1.79587,-1.70827 -4.92771,-1.77397 h -7.79673 z"
         style="font-style:normal;font-variant:normal;font-weight:normal;font-stretch:normal;font-size:44.8531px;font-family:Roboto;-inkscape-font-specification:Roboto;fill:#ffffff;fill-opacity:1;stroke-width:0.233609"
         id="path904" />
      <path
         d="m 280.38524,325.29013 q -0.91983,-0.15331 -1.99298,-0.15331 -3.98597,0 -5.40953,3.39465 v 16.81991 h -4.05167 v -23.6968 h 3.94217 l 0.0657,2.73761 q 1.99298,-3.17563 5.65044,-3.17563 1.18265,0 1.79587,0.30661 z"
         style="font-style:normal;font-variant:normal;font-weight:normal;font-stretch:normal;font-size:44.8531px;font-family:Roboto;-inkscape-font-specification:Roboto;fill:#ffffff;fill-opacity:1;stroke-width:0.233609"
         id="path906" />
      <path
         d="m 282.59723,333.28397 q 0,-3.48225 1.35786,-6.26367 1.37976,-2.78141 3.81076,-4.29258 2.45291,-1.51116 5.58474,-1.51116 4.8401,0 7.81863,3.35084 3.00043,3.35084 3.00043,8.91368 v 0.28471 q 0,3.46035 -1.33596,6.21986 -1.31406,2.73762 -3.78886,4.27068 -2.4529,1.53307 -5.65044,1.53307 -4.8182,0 -7.81863,-3.35084 -2.97853,-3.35085 -2.97853,-8.86988 z m 4.07358,0.48182 q 0,3.94217 1.81777,6.32937 1.83968,2.3872 4.90581,2.3872 3.08803,0 4.90581,-2.4091 1.81777,-2.43101 1.81777,-6.78929 0,-3.89837 -1.86157,-6.30747 -1.83968,-2.431 -4.90581,-2.431 -3.00043,0 -4.84011,2.3872 -1.83967,2.3872 -1.83967,6.83309 z"
         style="font-style:normal;font-variant:normal;font-weight:normal;font-stretch:normal;font-size:44.8531px;font-family:Roboto;-inkscape-font-specification:Roboto;fill:#ffffff;fill-opacity:1;stroke-width:0.233609"
         id="path908" />
      <path
         d="M 313.43375,321.65458 V 348.089 q 0,6.83308 -6.19797,6.83308 -1.33595,0 -2.4748,-0.39421 v -3.24134 q 0.70083,0.17521 1.83968,0.17521 1.35786,0 2.05868,-0.74463 0.72274,-0.72273 0.72274,-2.54051 v -26.52202 z m -4.46779,-6.28557 q 0,-0.96364 0.59132,-1.64257 0.61323,-0.70083 1.77398,-0.70083 1.18265,0 1.79587,0.67893 0.61323,0.67893 0.61323,1.66447 0,0.98554 -0.61323,1.64257 -0.61322,0.65703 -1.79587,0.65703 -1.18265,0 -1.77398,-0.65703 -0.59132,-0.65703 -0.59132,-1.64257 z"
         style="font-style:normal;font-variant:normal;font-weight:normal;font-stretch:normal;font-size:44.8531px;font-family:Roboto;-inkscape-font-specification:Roboto;fill:#ffffff;fill-opacity:1;stroke-width:0.233609"
         id="path910" />
      <path
         d="m 329.79375,345.7894 q -4.8182,0 -7.84053,-3.15374 -3.02233,-3.17563 -3.02233,-8.47565 v -0.74464 q 0,-3.52605 1.33596,-6.28556 1.35785,-2.78142 3.76696,-4.33639 2.431,-1.57686 5.25622,-1.57686 4.6211,0 7.1835,3.04423 2.56241,3.04423 2.56241,8.71657 v 1.68637 h -16.05338 q 0.0876,3.50415 2.03679,5.67234 1.97108,2.14629 4.99341,2.14629 2.14629,0 3.63555,-0.87604 1.48927,-0.87604 2.60621,-2.3215 l 2.47481,1.92728 q -2.97853,4.5773 -8.93558,4.5773 z m -0.50372,-21.2439 q -2.4529,0 -4.11738,1.79587 -1.66447,1.77398 -2.05868,4.99342 h 11.8703 v -0.30662 q -0.17521,-3.08803 -1.66447,-4.7744 -1.48926,-1.70827 -4.02977,-1.70827 z"
         style="font-style:normal;font-variant:normal;font-weight:normal;font-stretch:normal;font-size:44.8531px;font-family:Roboto;-inkscape-font-specification:Roboto;fill:#ffffff;fill-opacity:1;stroke-width:0.233609"
         id="path912" />
      <path
         d="m 349.21988,315.91653 v 5.73805 h 4.42399 v 3.13183 h -4.42399 v 14.69552 q 0,1.42356 0.59132,2.14629 0.59133,0.70083 2.01489,0.70083 0.70083,0 1.92728,-0.26281 v 3.28514 q -1.59877,0.43802 -3.10993,0.43802 -2.71572,0 -4.09547,-1.64257 -1.37976,-1.64257 -1.37976,-4.6649 v -14.69552 h -4.31449 v -3.13183 h 4.31449 v -5.73805 z"
         style="font-style:normal;font-variant:normal;font-weight:normal;font-stretch:normal;font-size:44.8531px;font-family:Roboto;-inkscape-font-specification:Roboto;fill:#ffffff;fill-opacity:1;stroke-width:0.233609"
         id="path914" />
      <path
         d="m 372.17203,339.06581 q 0,-1.64257 -1.24835,-2.5405 -1.22645,-0.91984 -4.31448,-1.57687 -3.06613,-0.65703 -4.88391,-1.57687 -1.79587,-0.91984 -2.67191,-2.19009 -0.85414,-1.27025 -0.85414,-3.02233 0,-2.91282 2.45291,-4.92771 2.4748,-2.01488 6.30746,-2.01488 4.02977,0 6.52648,2.08059 2.51861,2.08058 2.51861,5.32192 h -4.07358 q 0,-1.66447 -1.42356,-2.86902 -1.40166,-1.20455 -3.54795,-1.20455 -2.21199,0 -3.46034,0.96364 -1.24836,0.96364 -1.24836,2.51861 0,1.46736 1.16075,2.21199 1.16075,0.74463 4.18308,1.42356 3.04423,0.67893 4.92771,1.62067 1.88348,0.94174 2.78142,2.27769 0.91984,1.31406 0.91984,3.21944 0,3.17564 -2.54051,5.10292 -2.54051,1.90538 -6.59218,1.90538 -2.84712,0 -5.03721,-1.00744 -2.1901,-1.00745 -3.43845,-2.80332 -1.22645,-1.81778 -1.22645,-3.92027 h 4.05167 q 0.1095,2.03679 1.62067,3.24134 1.53306,1.18265 4.02977,1.18265 2.2996,0 3.67935,-0.91984 1.40166,-0.94174 1.40166,-2.49671 z"
         style="font-style:normal;font-variant:normal;font-weight:normal;font-stretch:normal;font-size:44.8531px;font-family:Roboto;-inkscape-font-specification:Roboto;fill:#ffffff;fill-opacity:1;stroke-width:0.233609"
         id="path916" />
    </g>
  </g>
  <g
     id="layer3"
     style="display:inline;opacity:1;fill:#ffffff;fill-opacity:1">
    <path
       style="display:inline;opacity:1;fill:#ffffff;fill-opacity:1;stroke-width:0.277771"
       d="m 22.076437,286.20187 c -7.230913,8.9e-4 -4.692065,-3.73284 16.32423,-65.73804 L 96.037213,50.416475 C 101.68027,33.767541 100.8737,35.431113 113.12029,31.807898 l 20.81401,-6.157931 c 11.7719,-3.482777 11.67309,-3.592574 14.3703,9.875933 26.94307,134.54023 26.93286,134.54227 26.93286,134.54227 0,0 0.019,0.0162 90.21345,-105.549267 25.00553,-29.266993 24.08892,-28.699537 31.02335,-30.565971 33.71184,-9.073702 -0.0102,-0.03791 33.71184,-9.073702 12.2856,-3.291917 12.31474,-3.221381 6.65268,13.789106 l -73.36096,220.431424 102.46181,-0.34721 43.44291,-126.16161 c 1.76207,-5.11719 1.37669,-4.86978 7.48508,-4.86978 11.87326,0 0.0246,-0.003 12.43221,-0.0102 16.99192,-0.008 19.86438,0.1652 25.32299,1.52746 8.07764,2.01585 14.94332,5.86887 20.93769,11.75019 9.57765,9.39699 14.53001,21.86607 13.97677,35.19087 -0.30996,7.46552 -1.83906,13.26876 -5.23445,19.86591 -4.52478,8.79136 -11.70612,15.85334 -20.73003,20.38536 -2.856,1.43437 -8.13195,3.27002 -11.31104,3.93545 -3.16242,0.66195 -11.29967,0.91745 -29.88543,0.93834 l -15.99676,0.018 -19.48321,57.43037 c -2.56716,7.56718 -2.0479,7.42269 -14.15564,7.42427 -160.55655,0.021 0,0.021 -160.55655,0.021 -8.77311,0 -9.99992,-1.67932 -7.72904,-8.82002 l 53.36249,-166.12489 c 0,0 -5.8e-4,0.002 -98.80303,116.23178 -6.76773,7.96147 -16.41266,5.40414 -18.10159,-3.27805 L 113.35656,82.549459 52.5971,264.37228 c -7.877195,23.57253 -5.438559,21.80871 -15.995505,21.80871 -7.180903,0 -4.291817,5e-5 -7.302074,0.0179 -3.182803,-1e-5 -7.223084,0.002 -7.223084,0.002 z m 423.796543,-93.3666 c 5.48251,-0.72751 11.17061,-4.83025 13.69851,-9.88053 1.58503,-3.16656 2.08156,-5.29905 2.06123,-8.85274 -0.0132,-2.30058 -0.16075,-3.36638 -0.6987,-5.04617 -2.04565,-6.38727 -6.78436,-10.89986 -13.39459,-12.75539 -2.02277,-0.56779 -2.97249,-0.63418 -10.59246,-0.74049 l -8.37044,-0.11676 -12.5641,37.4511 c 0,0 25.12891,0.26216 27.22172,0.16169 0.84026,-0.0403 2.02773,-0.13963 2.63883,-0.22071 z"
       id="path848-4" />
    <path
       id="rect962-80-1-4-0-7"
       style="display:inline;opacity:1;fill:#ffffff;fill-opacity:1;stroke-width:5.53008;stroke-linecap:round;stroke-linejoin:round"
       d="m 302.80885,193.06717 h 68.16765 c 1.56196,0 2.43095,1.19594 1.94843,2.68149 l -6.90901,21.27167 c -0.48252,1.48556 -2.12841,2.6815 -3.69036,2.6815 h -68.16762 c -1.56196,0 -2.43099,-1.19594 -1.94847,-2.6815 l 6.90905,-21.27167 c 0.48248,-1.48555 2.12841,-2.68149 3.69033,-2.68149 z" />
    <path
       id="rect962-80-1-4-9"
       style="display:inline;opacity:1;fill:#ffffff;fill-opacity:1;stroke-width:5.53008;stroke-linecap:round;stroke-linejoin:round"
       d="m 325.31518,127.78439 h 68.16764 c 1.56196,0 2.43096,1.19595 1.94844,2.68149 l -6.90902,21.27167 c -0.48251,1.48555 -2.1284,2.6815 -3.69035,2.6815 h -68.16763 c -1.56195,0 -2.43098,-1.19595 -1.94846,-2.6815 l 6.90905,-21.27167 c 0.48248,-1.48554 2.1284,-2.68149 3.69033,-2.68149 z" />
  </g>
  <g
     id="layer5"
     style="display:inline;opacity:0.3;fill:#ffffff;fill-opacity:1"
     transform="translate(110.51596,2.8978669)">
    <path
       id="path848-4-3"
       style="display:inline;opacity:1;fill:#ffffff;fill-opacity:1;stroke-width:0.27777"
       d="m -6.4500427,31.892256 c -3.4218112,1.841913 -4.4250003,4.995018 -8.0284503,15.626437 l -57.63679,170.047497 c -21.016291,62.00521 -23.55498,65.7384 -16.32407,65.73758 v 0 c 0,0 4.040005,-0.003 7.222816,-0.003 3.010249,-0.018 0.121496,-0.018 7.302397,-0.018 10.556948,0 8.118205,1.76403 15.995406,-21.80849 L 2.8403459,79.651616 Z" />
    <path
       id="path2144"
       style="display:inline;opacity:1;fill:#ffffff;fill-opacity:1;stroke-width:0.27777"
       d="m 166.75127,47.806531 c -3.23707,3.768725 -6.69422,7.81963 -11.81635,13.81466 C 64.740513,167.18665 64.721323,167.1703 64.721323,167.1703 l 6.21099,31.02602 c 45.626647,-53.67478 76.369497,-89.84103 76.369497,-89.84103 z" />
    <path
       id="path2149"
       style="display:inline;opacity:1;fill:#ffffff;fill-opacity:1;stroke-width:0.27777"
       d="m 245.9795,283.28155 9.44439,-27.42674 -102.46196,0.34727 -9.0165,27.09241 c 22.86344,0 31.08931,-0.003 102.03407,-0.013 z" />
    <path
       id="path2160"
       style="display:inline;opacity:1;fill:#ffffff;fill-opacity:1;stroke-width:0.27777"
       d="m 295.86381,218.42397 15.99644,-0.0181 c 18.58576,-0.0209 26.7231,-0.27598 29.88551,-0.93793 3.1791,-0.66543 8.45494,-2.5013 11.31094,-3.93567 9.0239,-4.53203 16.20522,-11.59395 20.72999,-20.38532 3.29885,-6.40959 4.82598,-12.08249 5.19504,-19.24586 h -27.99675 c -0.2264,2.12217 -0.7892,3.87687 -1.92961,6.15518 -2.5279,5.05028 -8.21586,9.15303 -13.69837,9.88054 -0.61111,0.0811 -1.79835,0.18025 -2.63861,0.22065 -2.09281,0.10041 -27.22192,-0.16104 -27.22192,-0.16104 z" />
    <path
       id="path2144-6"
       style="display:inline;opacity:1;fill:#ffffff;fill-opacity:1;stroke-width:0.27777"
       d="m 166.75127,47.806523 c -3.23707,3.768725 -6.69422,7.819631 -11.81634,13.814661 C 64.740512,167.18665 64.721322,167.1703 64.721322,167.1703 l 6.21099,31.02601 c 45.626648,-53.67478 76.369498,-89.84103 76.369498,-89.84102 z" />
    <path
       id="path2149-2"
       style="display:inline;opacity:1;fill:#ffffff;fill-opacity:1;stroke-width:0.27777"
       d="m 245.97951,283.28161 9.44438,-27.42673 -102.46196,0.34726 -9.0165,27.09241 c 22.86344,0 31.08931,-0.003 102.03408,-0.013 z" />
  </g>
</svg>
